<svg xmlns="http://www.w3.org/2000/svg" fill="#239292" viewBox="0 0 1333.33 1036.34" shape-rendering="geometricPrecision" text-rendering="geometricPrecision" image-rendering="optimizeQuality" fill-rule="evenodd" clip-rule="evenodd"><path d="M90.26 0h1152.81c49.65 0 90.26 40.61 90.26 90.26v855.82c0 49.64-40.62 90.26-90.26 90.26H90.26C40.62 1036.34 0 995.73 0 946.08V90.26C0 40.61 40.62 0 90.26 0zm46.44 286.62h1049.97v474.52H136.7V286.62zm341.42 163.51h34.59l84.65-94.83c7.53-8.43 20.56-9.17 28.99-1.65v.01c8.43 7.52 9.16 20.57 1.65 28.99l-60.22 67.48h184.57l-60.24-67.48c-7.53-8.43-6.78-21.47 1.64-28.99h.01c8.43-7.53 21.47-6.79 28.99 1.64l84.65 94.83h33.07l.45.01h31.06c6.96 0 12.66 5.69 12.66 12.65v35.68c0 6.96-5.69 12.65-12.66 12.65h-26.87l-13.83 174.33c-.37 4.79-3.98 8.78-8.78 8.78H496.11c-4.81 0-8.4-3.97-8.78-8.78l-13.84-174.33h-26.87c-6.96 0-12.66-5.69-12.66-12.65v-35.68c0-6.96 5.7-12.65 12.66-12.65h31.06l.45-.01zm240.68 67.84h40v115.64h-40V517.97zm-77.83 0h39.99v115.64h-39.99V517.97zm-77.82 0h40v115.64h-40V517.97zm162.45 401.5c-19.31 0-34.98-17.02-34.98-38.02 0-21 15.67-38.03 34.98-38.03h430.25c19.32 0 34.98 17.02 34.98 38.03 0 21-15.67 38.02-34.98 38.02H725.6zm-563.27 0c-19.11 0-34.6-17.02-34.6-38.02 0-21 15.49-38.03 34.6-38.03h398.88c19.11 0 34.6 17.02 34.6 38.03 0 21-15.49 38.02-34.6 38.02H162.33zm1117.71-701.35H57.35v736.75c0 13.86 11.12 24.99 24.98 24.99h1172.34a24.9 24.9 0 0024.98-24.99V218.12h.38zM1157.16 78.39c24.62 0 44.58 19.96 44.58 44.58 0 24.62-19.96 44.58-44.58 44.58-24.62 0-44.58-19.96-44.58-44.58 0-24.62 19.96-44.58 44.58-44.58zm-302.16 0c24.62 0 44.58 19.96 44.58 44.58 0 24.62-19.96 44.58-44.58 44.58-24.62 0-44.58-19.96-44.58-44.58 0-24.62 19.96-44.58 44.58-44.58zm151.08 0c24.62 0 44.58 19.96 44.58 44.58 0 24.62-19.96 44.58-44.58 44.58-24.62 0-44.58-19.96-44.58-44.58 0-24.62 19.96-44.58 44.58-44.58z"/></svg>